<?xml version="1.0" standalone="no"?>
<!DOCTYPE svg PUBLIC "-//W3C//DTD SVG 20010904//EN"
 "http://www.w3.org/TR/2001/REC-SVG-20010904/DTD/svg10.dtd">
<svg version="1.0" xmlns="http://www.w3.org/2000/svg"
 width="1280.000000pt" height="1280.000000pt" viewBox="0 0 1280.000000 1280.000000"
 preserveAspectRatio="xMidYMid meet">
<metadata>
Created by potrace 1.11, written by Peter Selinger 2001-2013
</metadata>
<g transform="translate(0.000000,1280.000000) scale(0.100000,-0.100000)"
fill="#000000" stroke="none">
<path d="M5880 9739 c-30 -11 -94 -31 -142 -45 -98 -28 -207 -83 -188 -94 8
-5 9 -10 2 -14 -6 -3 -13 -2 -17 4 -4 6 -29 -6 -64 -30 -31 -22 -62 -40 -68
-40 -6 0 -13 -4 -15 -9 -1 -4 -20 -17 -41 -28 -75 -38 -160 -153 -258 -348
-89 -179 -95 -198 -151 -438 -8 -35 -15 -41 -66 -64 -127 -56 -149 -67 -221
-117 -42 -28 -85 -56 -96 -63 -11 -6 -57 -35 -103 -62 -46 -28 -89 -51 -97
-51 -7 0 -16 -7 -19 -16 -3 -8 -10 -12 -16 -9 -15 9 -133 -113 -160 -165 -32
-63 -50 -135 -50 -206 0 -52 4 -64 25 -84 14 -13 25 -33 25 -44 0 -25 269
-294 345 -345 158 -107 258 -173 317 -209 67 -41 68 -41 208 -51 77 -6 145
-13 150 -16 17 -11 87 7 98 25 17 28 -10 73 -66 111 -26 17 -51 39 -56 48 -5
9 -21 27 -36 41 -39 37 -150 190 -167 229 -9 21 -15 73 -16 135 -2 113 5 133
65 185 l37 33 38 -29 c21 -15 40 -32 41 -36 2 -4 11 -2 19 4 11 10 16 10 23 0
11 -18 41 -7 74 28 22 23 28 40 30 78 1 47 2 48 34 51 22 2 46 17 75 44 48 47
171 118 205 118 12 0 22 4 22 9 0 12 146 49 190 49 19 -1 41 -5 48 -11 8 -6
73 -7 185 -1 94 4 208 8 252 9 91 2 313 -27 395 -52 30 -9 69 -15 85 -14 17 1
44 -3 60 -10 17 -6 57 -13 90 -15 85 -4 170 -38 235 -94 30 -26 60 -45 67 -43
24 9 52 -18 82 -80 17 -35 31 -69 31 -76 0 -9 8 -11 23 -7 12 3 28 6 35 6 7 0
12 13 12 30 0 16 9 49 19 72 11 24 22 51 26 62 5 16 13 18 69 14 57 -5 68 -9
95 -39 39 -43 45 -78 37 -201 l-6 -100 -83 -135 c-95 -157 -165 -236 -223
-252 -31 -9 -43 -19 -60 -54 l-22 -42 33 -39 c30 -36 36 -39 70 -33 20 3 44 1
53 -4 25 -15 172 51 308 138 60 39 123 77 140 86 18 9 42 29 56 44 23 28 35
38 153 130 60 47 105 92 105 105 0 8 25 45 78 118 55 74 82 147 82 221 0 26 5
51 10 54 16 10 12 53 -10 97 -11 23 -20 49 -20 57 0 21 -131 104 -200 126 -30
9 -80 30 -110 45 -129 65 -228 109 -270 120 -68 18 -119 47 -118 67 0 10 -5
42 -11 72 -6 29 -11 68 -11 87 0 18 -16 82 -35 144 -19 61 -41 139 -49 174
-27 113 -86 198 -226 321 -84 75 -149 116 -257 164 -48 21 -117 52 -153 69
-36 16 -114 46 -175 67 l-110 37 -320 3 c-298 3 -324 2 -375 -16z m-512 -293
c3 -12 -1 -17 -10 -14 -7 3 -15 13 -16 22 -3 12 1 17 10 14 7 -3 15 -13 16
-22z m1682 -181 c0 -8 -7 -15 -15 -15 -8 0 -15 7 -15 15 0 8 7 15 15 15 8 0
15 -7 15 -15z m-50 -14 c0 -5 -6 -14 -14 -20 -16 -13 -32 2 -21 19 8 12 35 13
35 1z m-480 -21 c0 -5 -2 -10 -4 -10 -3 0 -8 5 -11 10 -3 6 -1 10 4 10 6 0 11
-4 11 -10z m536 -20 c0 -16 -6 -20 -25 -18 -13 2 -27 9 -29 17 -3 10 0 12 12
8 9 -4 16 -2 16 3 0 6 6 10 13 10 7 0 13 -9 13 -20z m-1036 -192 c0 -6 -7 -7
-16 -4 -9 3 -18 6 -20 6 -3 0 -3 4 1 10 7 11 35 2 35 -12z m-25 -28 c3 -6 -1
-7 -9 -4 -18 7 -21 14 -7 14 6 0 13 -4 16 -10z m-968 -154 c-8 -7 -17 -23 -19
-36 -3 -27 -21 -34 -26 -10 -3 19 38 71 51 63 6 -4 4 -11 -6 -17z m1411 -98
c-7 -19 -38 -22 -38 -4 0 10 9 16 21 16 12 0 19 -5 17 -12z m-1398 -18 c0 -11
-6 -20 -14 -20 -18 0 -29 16 -21 30 11 18 35 11 35 -10z m500 -50 c0 -5 -4
-10 -10 -10 -5 0 -10 5 -10 10 0 6 5 10 10 10 6 0 10 -4 10 -10z m-455 -30 c3
-5 -1 -10 -10 -10 -9 0 -13 5 -10 10 3 6 8 10 10 10 2 0 7 -4 10 -10z m1855
-120 c0 -5 -4 -10 -10 -10 -5 0 -10 5 -10 10 0 6 5 10 10 10 6 0 10 -4 10 -10z
m-2074 -97 c-11 -11 -19 6 -11 24 8 17 8 17 12 0 3 -10 2 -21 -1 -24z m2604
-3 c0 -11 -7 -20 -15 -20 -27 0 -18 30 13 39 1 1 2 -8 2 -19z m-2716 -38 c8
-14 -8 -30 -37 -37 -22 -6 -27 -4 -27 12 0 11 3 23 7 26 9 10 51 9 57 -1z
m681 -152 c3 -5 1 -10 -4 -10 -6 0 -11 5 -11 10 0 6 2 10 4 10 3 0 8 -4 11
-10z m-895 -169 c0 -24 -18 -37 -31 -24 -13 13 -1 43 17 43 8 0 14 -9 14 -19z
m-3 -75 c-7 -17 -47 -22 -47 -7 0 5 7 17 16 26 19 19 40 6 31 -19z"/>
<path d="M6650 8039 c-101 -21 -120 -30 -102 -51 8 -10 64 -13 238 -13 l228 0
10 27 c7 19 6 31 -4 42 -19 24 -245 20 -370 -5z"/>
<path d="M5655 8009 c-141 -20 -196 -32 -188 -40 4 -4 105 -13 223 -19 261
-12 241 -12 264 5 17 13 17 15 -7 39 -25 25 -31 26 -129 25 -57 -1 -130 -5
-163 -10z"/>
<path d="M5725 7853 c-40 -10 -33 -18 16 -19 48 -1 64 8 33 20 -17 6 -18 6
-49 -1z"/>
<path d="M6770 7819 c-12 -9 -12 -10 3 -5 10 3 28 1 39 -5 23 -12 39 -2 18 11
-20 13 -42 12 -60 -1z"/>
<path d="M5714 7755 l-28 -22 30 -14 c30 -15 43 -44 26 -61 -6 -6 -21 -4 -41
6 l-31 17 0 -46 c0 -25 6 -63 12 -85 12 -37 16 -40 48 -40 67 0 75 7 89 71 31
139 -27 236 -105 174z"/>
<path d="M6780 7743 c-8 -3 -23 -12 -32 -20 -15 -14 -14 -17 15 -43 30 -27 31
-30 15 -46 -14 -14 -22 -16 -42 -6 l-25 11 6 -57 c9 -93 54 -134 100 -90 53
49 69 149 35 218 -17 34 -40 45 -72 33z"/>
<path d="M6870 6109 c-37 -15 -37 -16 7 -62 40 -41 73 -114 73 -160 0 -31 -29
-72 -75 -104 -136 -96 -305 -179 -383 -188 -31 -4 -100 -16 -153 -26 l-96 -20
-144 31 c-128 27 -214 53 -229 70 -3 3 -39 23 -80 44 -85 43 -138 95 -180 178
-16 31 -34 59 -40 63 -5 3 -10 17 -10 29 0 20 -6 24 -46 29 -25 2 -61 1 -80
-3 -18 -4 -34 -4 -34 0 0 4 -17 6 -37 4 -21 -2 -65 -6 -98 -9 -195 -17 -245
-23 -295 -35 -25 -6 -63 -12 -85 -14 -22 -2 -53 -9 -68 -15 -16 -6 -35 -11
-43 -11 -8 0 -14 -5 -14 -11 0 -6 -7 -9 -15 -5 -8 3 -30 -3 -49 -13 -18 -10
-59 -25 -92 -32 -32 -7 -68 -18 -79 -26 -11 -7 -30 -13 -42 -13 -24 0 -66 -34
-56 -44 4 -3 -3 -6 -14 -6 -12 0 -23 -7 -27 -15 -3 -8 -10 -15 -17 -15 -6 0
-20 -11 -31 -25 -11 -14 -26 -25 -34 -25 -8 0 -14 -6 -14 -13 0 -7 -9 -13 -20
-14 -35 -3 -245 -206 -233 -226 3 -7 2 -9 -2 -4 -12 10 -75 -53 -75 -75 0 -10
-6 -18 -14 -18 -8 0 -17 -11 -20 -25 -4 -14 -13 -25 -22 -25 -8 0 -13 -4 -9
-9 3 -5 1 -12 -5 -16 -6 -4 -8 -10 -5 -15 3 -4 -2 -10 -10 -14 -8 -3 -15 -12
-15 -21 0 -18 -18 -51 -42 -79 -10 -11 -18 -28 -18 -37 0 -10 -3 -19 -8 -21
-4 -1 -19 -25 -33 -53 -14 -27 -30 -59 -36 -70 -6 -11 -15 -31 -21 -45 -22
-55 -54 -126 -64 -144 -7 -13 -6 -21 2 -26 8 -5 5 -9 -8 -12 -15 -4 -23 -20
-33 -62 -7 -31 -16 -56 -20 -56 -5 0 -6 -7 -3 -15 4 -9 0 -15 -7 -15 -11 0
-11 -3 1 -10 9 -6 11 -13 5 -17 -18 -14 -35 -52 -35 -77 0 -14 -4 -27 -9 -30
-5 -4 -13 -30 -17 -59 -9 -58 -8 -56 -17 -77 -32 -81 -41 -306 -13 -362 8 -15
12 -36 9 -47 -3 -13 1 -21 14 -24 13 -3 14 -5 2 -6 -25 -2 -18 -115 10 -145
12 -12 21 -27 21 -32 0 -5 21 -20 48 -33 26 -14 70 -41 97 -61 128 -95 162
-118 195 -135 19 -10 51 -31 71 -46 20 -16 42 -29 49 -29 7 0 52 -24 99 -54
89 -55 140 -82 346 -182 66 -31 127 -63 135 -69 26 -22 203 -45 495 -66 396
-28 444 -29 615 -20 267 15 403 21 660 26 129 3 291 10 360 15 69 5 197 12
285 14 507 16 554 19 647 37 53 10 140 19 195 20 176 2 443 54 559 108 70 33
247 165 269 202 4 5 15 9 26 9 11 0 35 11 53 25 18 14 36 25 39 25 12 0 98 69
156 125 31 29 82 75 114 101 32 27 100 88 151 136 91 86 92 89 90 130 -9 134
-26 261 -48 351 -13 56 -30 136 -36 177 -14 90 -50 213 -97 335 -40 101 -152
305 -191 348 -14 15 -23 27 -20 27 14 0 -63 79 -181 186 -58 52 -172 131 -251
172 -44 24 -56 31 -206 134 -79 55 -136 83 -221 108 -24 7 -43 19 -43 25 0 27
-36 43 -111 47 -57 4 -84 10 -107 26 -16 12 -39 22 -50 22 -12 0 -24 5 -27 10
-3 6 -13 10 -22 10 -8 0 -29 6 -46 14 -45 19 -107 35 -158 40 -24 3 -60 12
-80 20 -34 14 -57 20 -123 32 -17 4 -32 1 -36 -7 -6 -9 -12 -8 -25 4 -9 10
-31 17 -48 17 -18 0 -77 12 -132 26 -139 35 -137 35 -165 23z m-1510 -133 c0
-3 -4 -8 -10 -11 -5 -3 -10 -1 -10 4 0 6 5 11 10 11 6 0 10 -2 10 -4z m2050
-680 c0 -8 -4 -17 -8 -20 -13 -8 -35 11 -28 23 10 16 36 14 36 -3z m-15 -46
c3 -5 -1 -10 -9 -10 -9 0 -16 5 -16 10 0 6 4 10 9 10 6 0 13 -4 16 -10z m75
-5 c0 -8 -4 -15 -9 -15 -13 0 -22 16 -14 24 11 11 23 6 23 -9z m130 -6 c0 -5
-7 -9 -15 -9 -15 0 -20 12 -9 23 8 8 24 -1 24 -14z m60 -44 c0 -8 -7 -15 -15
-15 -8 0 -15 7 -15 15 0 8 7 15 15 15 8 0 15 -7 15 -15z m-3580 -325 c0 -5 -2
-10 -4 -10 -3 0 -8 5 -11 10 -3 6 -1 10 4 10 6 0 11 -4 11 -10z m614 -81 c-3
-5 -14 -9 -25 -9 -17 0 -18 3 -9 21 9 16 14 18 26 9 7 -7 11 -16 8 -21z m4126
-188 c0 -13 -10 -14 -29 -2 -8 5 -11 16 -7 26 5 15 8 15 21 1 8 -8 15 -19 15
-25z m-4620 -1 c0 -5 -4 -10 -10 -10 -5 0 -10 5 -10 10 0 6 5 10 10 10 6 0 10
-4 10 -10z m-286 -79 c-2 -2 -11 -1 -20 3 -14 5 -14 9 -3 22 12 14 14 14 20
-3 3 -10 5 -20 3 -22z m30 23 c9 -22 -3 -32 -14 -14 -12 19 -12 30 -1 30 5 0
12 -7 15 -16z m-294 -149 c0 -8 -4 -15 -10 -15 -5 0 -10 7 -10 15 0 8 5 15 10
15 6 0 10 -7 10 -15z m3420 -65 c0 -5 -4 -10 -10 -10 -5 0 -10 5 -10 10 0 6 5
10 10 10 6 0 10 -4 10 -10z m820 -50 c0 -5 -4 -10 -10 -10 -5 0 -10 5 -10 10
0 6 5 10 10 10 6 0 10 -4 10 -10z m-10 -99 c0 -9 -24 -21 -41 -21 -10 0 -12
33 -3 43 8 8 44 -11 44 -22z m56 0 c-10 -16 -36 -13 -36 3 0 17 21 27 34 16 4
-5 5 -13 2 -19z m-3906 -31 c0 -5 -4 -10 -10 -10 -5 0 -10 5 -10 10 0 6 5 10
10 10 6 0 10 -4 10 -10z m2750 -30 c0 -5 -2 -10 -4 -10 -3 0 -8 5 -11 10 -3 6
-1 10 4 10 6 0 11 -4 11 -10z m-362 -52 c8 -8 8 -17 0 -32 -15 -29 -14 -29
-37 -16 -20 10 -28 40 -14 53 10 11 38 8 51 -5z m382 -100 l0 -33 -15 29 c-18
35 -18 36 0 36 10 0 15 -10 15 -32z m757 -194 c-9 -9 -28 6 -21 18 4 6 10 6
17 -1 6 -6 8 -13 4 -17z m553 -178 c0 -11 -19 -15 -25 -6 -3 5 1 10 9 10 9 0
16 -2 16 -4z m-162 -78 c14 -14 16 -28 2 -28 -5 0 -14 9 -20 20 -12 22 -1 27
18 8z m72 -58 c0 -5 8 -10 18 -11 13 0 14 -2 2 -6 -8 -3 -27 -14 -41 -24 -31
-21 -39 -16 -39 23 0 24 4 28 30 28 17 0 30 -4 30 -10z m-2629 -102 c5 -38 3
-54 -8 -65 -15 -16 -43 -17 -43 -2 0 7 -7 17 -17 24 -19 14 -9 35 18 35 10 0
19 5 19 10 0 15 30 12 31 -2z"/>
</g>
</svg>
